<svg xmlns="http://www.w3.org/2000/svg" width="1200" height="300" viewBox="0 0 1200 300" role="img" aria-label="maps-generator">
  <defs>
    <linearGradient id="bg" x1="0" y1="0" x2="1" y2="1">
      <stop offset="0" stop-color="#0d1117"/>
      <stop offset="1" stop-color="#674d8c"/>
    </linearGradient>
    <linearGradient id="accentbar" x1="0" y1="0" x2="0" y2="1">
      <stop offset="0" stop-color="#bc8cff"/>
      <stop offset="1" stop-color="#674d8c"/>
    </linearGradient>
  </defs>
  <rect width="1200" height="300" fill="url(#bg)"/>
  <rect width="1200" height="300" fill="#0d1117" fill-opacity="0.55"/>
  <rect x="0" y="0" width="14" height="300" fill="url(#accentbar)"/>
  <circle cx="1080" cy="80" r="180" fill="#bc8cff" fill-opacity="0.06"/>
  <circle cx="1140" cy="240" r="120" fill="#bc8cff" fill-opacity="0.05"/>
  <text x="60" y="96" font-family="Segoe UI,Helvetica,Arial,sans-serif" font-size="56" font-weight="700" fill="#f0f6fc">maps-generator</text>
  <text x="60" y="152" font-family="Segoe UI,Helvetica,Arial,sans-serif" font-size="24" fill="#8b949e">Render Brazilian regional maps to SVG from OpenStreetMap and</text><text x="60" y="186" font-family="Segoe UI,Helvetica,Arial,sans-serif" font-size="24" fill="#8b949e">IBGE data</text>
  <g><rect x="60" y="232" rx="13" ry="13" width="76" height="30" fill="#161b22" stroke="#bc8cff" stroke-opacity="0.45"/><text x="98" y="252" text-anchor="middle" font-family="SFMono-Regular,Consolas,Liberation Mono,Menlo,monospace" font-size="14" fill="#c9d1d9">Python</text></g><g><rect x="148" y="232" rx="13" ry="13" width="139" height="30" fill="#161b22" stroke="#bc8cff" stroke-opacity="0.45"/><text x="218" y="252" text-anchor="middle" font-family="SFMono-Regular,Consolas,Liberation Mono,Menlo,monospace" font-size="14" fill="#c9d1d9">OpenStreetMap</text></g><g><rect x="299" y="232" rx="13" ry="13" width="130" height="30" fill="#161b22" stroke="#bc8cff" stroke-opacity="0.45"/><text x="364" y="252" text-anchor="middle" font-family="SFMono-Regular,Consolas,Liberation Mono,Menlo,monospace" font-size="14" fill="#c9d1d9">Overpass API</text></g><g><rect x="441" y="232" rx="13" ry="13" width="58" height="30" fill="#161b22" stroke="#bc8cff" stroke-opacity="0.45"/><text x="470" y="252" text-anchor="middle" font-family="SFMono-Regular,Consolas,Liberation Mono,Menlo,monospace" font-size="14" fill="#c9d1d9">IBGE</text></g><g><rect x="511" y="232" rx="13" ry="13" width="49" height="30" fill="#161b22" stroke="#bc8cff" stroke-opacity="0.45"/><text x="536" y="252" text-anchor="middle" font-family="SFMono-Regular,Consolas,Liberation Mono,Menlo,monospace" font-size="14" fill="#c9d1d9">SVG</text></g><g><rect x="572" y="232" rx="13" ry="13" width="94" height="30" fill="#161b22" stroke="#bc8cff" stroke-opacity="0.45"/><text x="619" y="252" text-anchor="middle" font-family="SFMono-Regular,Consolas,Liberation Mono,Menlo,monospace" font-size="14" fill="#c9d1d9">Mercator</text></g>
</svg>